<svg height="512" viewBox="0 0 64 64" width="512" xmlns="http://www.w3.org/2000/svg"><g id="line"><path d="m45 23a14 14 0 1 0 14 14 14.01572 14.01572 0 0 0 -14-14zm4.89453 18.44727a.99982.99982 0 0 1 -1.60153.25973l-7.01856-7.01855-4.47168 8.94336a1.00012 1.00012 0 0 1 -1.78906-.89454l5.0918-10.18457a1.00116 1.00116 0 0 1 1.6015-.2597l7.01856 7.01855 4.47168-8.94336a1.00012 1.00012 0 0 1 1.78906.89454z" fill="#c4a2fc"/><path d="m45 19a18 18 0 1 0 18 18 18.02063 18.02063 0 0 0 -18-18zm0 34a16 16 0 1 1 16-16 16.01833 16.01833 0 0 1 -16 16z" fill="#c4a2fc"/><path d="m27.66058 46.92535-7.12542 7.12543a5.24253 5.24253 0 0 0 7.41406 7.41406l7.12543-7.12542a20.1232 20.1232 0 0 1 -7.41407-7.41407z" fill="#c4a2fc"/><g fill="#151a6a"><path d="m38 1h-34a3.00328 3.00328 0 0 0 -3 3v44a3.00328 3.00328 0 0 0 3 3h34a3.00328 3.00328 0 0 0 3-3v-44a3.00328 3.00328 0 0 0 -3-3zm1 47a1.00067 1.00067 0 0 1 -1 1h-34a1.00067 1.00067 0 0 1 -1-1v-44a1.001 1.001 0 0 1 1-1h34a1.001 1.001 0 0 1 1 1z"/><path d="m7 8h11a1 1 0 0 0 0-2h-11a1 1 0 0 0 0 2z"/><path d="m7 12h11a1 1 0 0 0 0-2h-11a1 1 0 0 0 0 2z"/><path d="m13 32a7 7 0 1 0 7 7 7.00848 7.00848 0 0 0 -7-7zm-1 2.10107v3.89893h-3.89893a5.01458 5.01458 0 0 1 3.89893-3.89893zm1 9.89893a5.00837 5.00837 0 0 1 -4.89893-4h4.89893a.99943.99943 0 0 0 1-1v-4.89893a5 5 0 0 1 -1 9.89893z"/><path d="m35 27h-1v-16a1 1 0 0 0 -2 0v16h-4v-20a1 1 0 0 0 -2 0v20h-4v-12a1 1 0 0 0 -2 0v12h-4v-8a1 1 0 0 0 -2 0v8h-4v-10a1 1 0 0 0 -2 0v10h-1a1 1 0 0 0 0 2h28a1 1 0 0 0 0-2z"/><path d="m35 44h-11a1 1 0 0 0 0 2h11a1 1 0 0 0 0-2z"/><path d="m35 36h-11a1 1 0 0 0 0 2h11a1 1 0 0 0 0-2z"/><path d="m35 40h-11a1 1 0 0 0 0 2h11a1 1 0 0 0 0-2z"/><path d="m35 32h-11a1 1 0 0 0 0 2h11a1 1 0 0 0 0-2z"/></g></g></svg>