<svg id="Line" height="512" viewBox="0 0 64 64" width="512" xmlns="http://www.w3.org/2000/svg"><path d="m43.71893 45.133-11.8023 3.63147a12.96617 12.96617 0 0 0 20.53064 5.09686z" fill="#c4a2fc"/><path d="m43 43.26141v-12.21075a12.95157 12.95157 0 0 0 -11.67438 15.80267z" fill="#c4a2fc"/><path d="m44 25a19 19 0 1 0 19 19 19.02162 19.02162 0 0 0 -19-19zm0 34a15 15 0 1 1 15-15 15.01641 15.01641 0 0 1 -15 15z" fill="#c4a2fc"/><path d="m45 31.05066v10.53528l7.44727-7.44727a12.93 12.93 0 0 0 -7.44727-3.08801z" fill="#c4a2fc"/><path d="m53.86133 35.55273-8.44727 8.44727 8.44727 8.44727a12.93663 12.93663 0 0 0 0-16.89454z" fill="#c4a2fc"/><g fill="#151a6a"><path d="m4.82813 51h35.17187a3.00328 3.00328 0 0 0 3-3v-44a3.00328 3.00328 0 0 0 -3-3h-26a1.00491 1.00491 0 0 0 -.70831.29425l-11.99744 11.99744a1.005 1.005 0 0 0 -.29425.70831c.00533 17.37724 0 13.76593 0 33.17188a3.83308 3.83308 0 0 0 3.82813 3.82812zm-1.82813-3.82812a1.84191 1.84191 0 0 1 .53516-1.293l2.79834-2.79831a15.37557 15.37557 0 0 0 2.58593 2.58593l-2.79834 2.79834a1.82853 1.82853 0 0 1 -3.12109-1.29296zm6-13.67188a9.5 9.5 0 1 1 9.5 9.5 9.51081 9.51081 0 0 1 -9.5-9.5zm2.77618 9.30975-1.42883 1.42884a13.44641 13.44641 0 0 1 -2.58594-2.58594l1.42884-1.42883a11.58031 11.58031 0 0 0 2.58593 2.58593zm29.22382-38.80975v44a1.00067 1.00067 0 0 1 -1 1h-31.58594l5.13587-5.13586a11.54353 11.54353 0 1 0 -5.41407-5.41407l-5.13586 5.13587v-28.58594h9a3.00328 3.00328 0 0 0 3-3v-9h25a1.00067 1.00067 0 0 1 1 1zm-36.58594 9 8.58594-8.58594v7.58594a1.00067 1.00067 0 0 1 -1 1z"/><path d="m22.5 38a.99943.99943 0 0 0 1-1v-8a1 1 0 0 0 -2 0v8a.99943.99943 0 0 0 1 1z"/><path d="m19.5 37v-6a1 1 0 0 0 -2 0v6a1 1 0 0 0 2 0z"/><path d="m14.5 32a.99943.99943 0 0 0 -1 1v4a1 1 0 0 0 2 0v-4a.99943.99943 0 0 0 -1-1z"/><path d="m27 8h10a1 1 0 0 0 0-2h-10a1 1 0 0 0 0 2z"/><path d="m37 10h-6a1 1 0 0 0 0 2h6a1 1 0 0 0 0-2z"/><path d="m37 18h-28a1 1 0 0 0 0 2h28a1 1 0 0 0 0-2z"/><path d="m37 28h-5a1 1 0 0 0 0 2h5a1 1 0 0 0 0-2z"/><path d="m37 33h-4a1 1 0 0 0 0 2h4a1 1 0 0 0 0-2z"/><path d="m37 38h-5a1 1 0 0 0 0 2h5a1 1 0 0 0 0-2z"/><path d="m37 43h-8a1 1 0 0 0 0 2h8a1 1 0 0 0 0-2z"/><path d="m37 23h-8a1 1 0 0 0 0 2h8a1 1 0 0 0 0-2z"/></g></svg>