<svg id="Line" height="512" viewBox="0 0 64 64" width="512" xmlns="http://www.w3.org/2000/svg"><g fill="#c4a2fc"><circle cx="48" cy="27" r="3"/><circle cx="35" cy="27" r="3"/><circle cx="30" cy="39" r="3"/><circle cx="49" cy="50" r="2"/><circle cx="54" cy="39" r="3"/><path d="m41 15c-12.13086 0-22 10.7666-22 24a25.5202 25.5202 0 0 0 3.4043 12.81934 3.94081 3.94081 0 0 0 6.60351.28613 1.93806 1.93806 0 0 1 2.79-.38574 2.36842 2.36842 0 0 1 .40918 3.30273 4.418 4.418 0 0 0 2.1084 6.8457 20.27651 20.27651 0 0 0 6.68461 1.13184c12.13086 0 22-10.7666 22-24s-9.86914-24-22-24zm-11 29a5 5 0 1 1 5-5 5.00588 5.00588 0 0 1 -5 5zm5-12a5 5 0 1 1 5-5 5.00588 5.00588 0 0 1 -5 5zm8-5a5 5 0 1 1 5 5 5.00588 5.00588 0 0 1 -5-5zm6 27a4 4 0 1 1 4-4 4.004 4.004 0 0 1 -4 4zm10-15a5 5 0 1 1 -5-5 5.00588 5.00588 0 0 1 5 5z"/></g><path d="m48.72144 15.59393.50415-1.4494a2.99972 2.99972 0 0 0 -2.10645-3.89453l-2.1723-.54315a24.94964 24.94964 0 0 0 -29.92529-6.15741c-5.04855-1.12091-10.7627-.1297-13.81455 3.84119a1.00027 1.00027 0 0 0 .42188 1.53808c2.00781.80274 1.86718 1.17188.95117 3.57227a19.67119 19.67119 0 0 0 -1.58005 7.49902 10.11688 10.11688 0 0 0 .27069 2.37573 24.9582 24.9582 0 0 0 24.72931 28.62427h.00116a25.02812 25.02812 0 0 0 24.99884-25 24.45019 24.45019 0 0 0 -2.27856-10.40607zm-1.38453-2.10565-4.99091 14.34906-12.30218-2.63617.82727-15.72461a1 1 0 0 1 1.24121-.918l3.80439.95144-.90692 6.34839a1.0003 1.0003 0 0 0 1.98046.2832l.87769-6.14359 4.07288 1.01855-2.889 8.667a.99964.99964 0 0 0 1.89648.63282l2.93777-8.81337 2.74872.68744a.99786.99786 0 0 1 .70214 1.29784zm-20.20062 35.48291 2.05878-16.46741 10.81427 2.307-3.95734 11.87202a22.83339 22.83339 0 0 1 -8.91571 2.28839zm-7.42645-.85272-5.7757-13.47656 10.35871-3.852 2.18872 7.29583-1.36145 10.89192a22.89186 22.89186 0 0 1 -5.41028-.85919zm2.70538-23.58734 1.30158 4.33868-10.5716 3.93119-1.72589-4.027a36.815 36.815 0 0 0 10.99591-4.24287zm18.23029 8.37115-11.20151-2.38958.41339-3.30665 11.84082 2.53809zm-14.64551-29.90228a22.93215 22.93215 0 0 1 15.2301 5.77753l-8.63244-2.15839a3.00051 3.00051 0 0 0 -3.72461 2.752l-.87055 16.54744-.90674 7.2536-3.02948-10.09833c3.46631-7.24737 2.03172-13.75891-3.89828-17.47229a15.19083 15.19083 0 0 0 -2.22632-1.14245 22.75889 22.75889 0 0 1 8.05832-1.45911zm-21.55176 10.21387c.78809-2.06446 1.53809-4.0293-.81836-5.51563 3.57295-3.28357 10.59575-3.45814 15.47657-.40136 5.07812 3.17968 6.208 8.6416 3.11914 15.01171a34.79525 34.79525 0 0 1 -12.26559 4.68653c-.74451-.05646-5.52746-.588-6.69977-4.92328-.00415-.01953-.00616-.03864-.01147-.0578a7.90968 7.90968 0 0 1 -.24876-2.01404 17.69242 17.69242 0 0 1 1.44824-6.78613zm-1.44 12.57318a10.08781 10.08781 0 0 0 6.30945 3.15869l7.83531 18.28241a23.0101 23.0101 0 0 1 -14.14476-21.4411zm35.64838 19.40423 5.28772-15.86315 3.78266-10.87513a22.98322 22.98322 0 0 1 -9.07037 26.73828z" fill="#151a6a"/><path d="m17.06445 20.29883a1.00059 1.00059 0 0 0 1.91993.56445 12.80182 12.80182 0 0 0 -2.48731-12.06928 1.00031 1.00031 0 1 0 -1.45507 1.373 10.9 10.9 0 0 1 2.02245 10.13183z" fill="#151a6a"/><path d="m12.27051 23.68457a.99976.99976 0 0 0 .66211-1.88672c-4.61328-1.61914-3.97657-6.415-3.94727-6.62012a.99985.99985 0 0 0 -1.97754-.29687 8.0121 8.0121 0 0 0 5.2627 8.80371z" fill="#151a6a"/></svg>