<svg id="Line" height="512" viewBox="0 0 64 64" width="512" xmlns="http://www.w3.org/2000/svg"><path d="m60 32h-1.02808c-.28485-6.56964-3.36352-8-5.97192-8-3.42468 0-7.294 4.83417-9 7.22644-1.706-2.39227-5.57532-7.22644-9-7.22644-2.6084 0-5.68707 1.43036-5.97192 8h-1.02808a3.00328 3.00328 0 0 0 -3 3v25a3.00328 3.00328 0 0 0 3 3h32a3.00328 3.00328 0 0 0 3-3v-25a3.00328 3.00328 0 0 0 -3-3zm-7-6c1.62036 0 3.743.6521 3.97656 6h-11.06756c2.03607-2.76495 5.07141-6 7.091-6zm-18 0c2.01959 0 5.05493 3.23505 7.091 6h-11.06756c.23356-5.3479 2.3562-6 3.97656-6zm1 32h-6a1 1 0 0 1 0-2h6a1 1 0 0 1 0 2zm0-4h-6a1 1 0 0 1 0-2h6a1 1 0 0 1 0 2zm24-12h-15v18a1 1 0 0 1 -2 0v-18h-15a1 1 0 0 1 0-2h15v-5a1 1 0 0 1 2 0v5h15a1 1 0 0 1 0 2z" fill="#c4a2fc"/><g fill="#151a6a"><path d="m49.3418 21.55273-4.3418-2.17089v-7.94043a2.99737 2.99737 0 0 0 -2.05078-2.8462l-3.93848-1.3125-.01074-.00256v-3.28015a3.00328 3.00328 0 0 0 -3-3h-32a3.00328 3.00328 0 0 0 -3 3v44a3.00328 3.00328 0 0 0 3 3h32a3.00328 3.00328 0 0 0 3-3v-3.28009l.01074-.00262h.001l3.9375-1.3125a2.99737 2.99737 0 0 0 2.05076-2.8462v-7.94043l4.3418-2.17089a2.98446 2.98446 0 0 0 1.6582-2.68311v-3.52832a2.98446 2.98446 0 0 0 -1.6582-2.68311zm-12.3418 26.44727a1.001 1.001 0 0 1 -1 1h-32a1.0013 1.0013 0 0 1 -1-1v-44a1.0013 1.0013 0 0 1 1-1h32a1.001 1.001 0 0 1 1 1v3.3277c-.017.00641-.03491.00885-.05176.01556l-28.0625 11.2251a2.98621 2.98621 0 0 0 -1.88574 2.78564v9.292a2.98621 2.98621 0 0 0 1.88574 2.78564l2.90473 1.16187-1.15619 4.04663a3.0015 3.0015 0 0 0 2.2959 3.76562 14.11278 14.11278 0 0 0 2.27392.395 2.986 2.986 0 0 0 2.33692-1.127l2.89721-3.62116 16.51 6.60407c.01679.00671.03485.00873.05176.01514zm-27.37109-16.42578a.99421.99421 0 0 1 -.62891-.92822v-9.292a.99422.99422 0 0 1 .62891-.92822l9.37109-3.74859v18.64562zm8.86926 5.70239-2.51917 3.14819a.99431.99431 0 0 1 -.97607.356l-1.68066-.33594a.99982.99982 0 0 1 -.76514-1.25537l1.09991-3.8493zm24.50183 3.28198a.99822.99822 0 0 1 -.68359.94873l-3.9375 1.3125a1.0023 1.0023 0 0 1 -.68848-.0205l-16.69043-6.67652v-20.2456l16.69043-6.67652a1.001 1.001 0 0 1 .68848-.0205l3.9375 1.3125a.99822.99822 0 0 1 .68359.94873zm6-12.79443a.9945.9945 0 0 1 -.55273.894l-3.44727 1.72368v-8.76368l3.44727 1.72364a.9945.9945 0 0 1 .55273.894z"/><path d="m8 9h6a1 1 0 0 0 0-2h-6a1 1 0 0 0 0 2z"/><path d="m8 13h3a1 1 0 0 0 0-2h-3a1 1 0 0 0 0 2z"/><path d="m38 13a.99974.99974 0 0 0 -1 1v24a1 1 0 0 0 2 0v-24a.99974.99974 0 0 0 -1-1z"/><path d="m14 21a1 1 0 0 0 -1 1v8a1 1 0 0 0 2 0v-8a1 1 0 0 0 -1-1z"/><path d="m33 45h-26a1 1 0 0 0 0 2h26a1 1 0 0 0 0-2z"/></g></svg>