<?xml version="1.0" encoding="UTF-8"?>
<svg xmlns="http://www.w3.org/2000/svg" id="Line" width="512" height="512" viewBox="0 0 64 64"><path d="M59.98877,35.85156A.99974.99974,0,0,0,59,35H55V33a8,8,0,0,0-16,0v2H35a.99974.99974,0,0,0-.98877.85156l-3,20A1.00335,1.00335,0,0,0,31,56a7.00818,7.00818,0,0,0,7,7H56a7.00818,7.00818,0,0,0,7-7,1.00335,1.00335,0,0,0-.01123-.14844ZM41,33a6,6,0,0,1,12,0v2H41ZM53,58H41a1,1,0,0,1,0-2H53a1,1,0,0,1,0,2Zm-5.59473-4.08594a.99832.99832,0,0,1-.81054,0C39.1167,50.59766,38,46.90527,38,45a4.94685,4.94685,0,0,1,5-5,6.26764,6.26764,0,0,1,4,1.40332A6.26764,6.26764,0,0,1,51,40a4.94685,4.94685,0,0,1,5,5C56,46.90527,54.8833,50.59766,47.40527,53.91406Z" style="fill:#c4a2fc"/><path d="M51,42a4.15523,4.15523,0,0,0-3.2041,1.40527,1.00635,1.00635,0,0,1-1.59277-.001A4.15767,4.15767,0,0,0,43,42a2.93427,2.93427,0,0,0-3,3c0,2.3457,2.54443,4.84863,7,6.90234C51.45557,49.84863,54,47.3457,54,45A2.93427,2.93427,0,0,0,51,42Z" style="fill:#c4a2fc"/><path d="M50.832,7.44531,47.42578,2.33594A2.99279,2.99279,0,0,0,44.92969,1H7.07031A2.99279,2.99279,0,0,0,4.57422,2.33594L1.168,7.44531A1.60807,1.60807,0,0,0,1,8V50a.99974.99974,0,0,0,1,1H50a.99974.99974,0,0,0,1-1V8A1.60807,1.60807,0,0,0,50.832,7.44531ZM44.92969,3a.99725.99725,0,0,1,.832.44531L48.13153,7H42.72089L41.38751,3ZM49,9v3a3,3,0,0,1-6,0V9ZM39.27911,3l1.33338,4H34.847l-.66662-4ZM41,9v3a3,3,0,0,1-6,0V9ZM27,3h5.153l.66662,4H27Zm0,6h6v3a3,3,0,0,1-6,0ZM19.847,3H25V7H19.18036ZM19,9h6v3a3,3,0,0,1-6,0ZM12.72089,3h5.09875L17.153,7H11.38751ZM11,9h6v3a3,3,0,0,1-6,0ZM6.23828,3.44531A.99725.99725,0,0,1,7.07031,3h3.54218L9.27911,7H3.86847ZM3,9H9v3a3,3,0,0,1-6,0ZM7,49H3V45H7Zm18,0H9V42a1.001,1.001,0,0,1,1-1h3v1a3.00328,3.00328,0,0,0,3,3h2a3.00328,3.00328,0,0,0,3-3V41h3a1.001,1.001,0,0,1,1,1ZM15,42V41h4v1a1.001,1.001,0,0,1-1,1H16A1.001,1.001,0,0,1,15,42Zm34,7H27V45H49Zm0-6H27V42a3.00328,3.00328,0,0,0-3-3H10a3.00328,3.00328,0,0,0-3,3v1H3V36H49ZM17,29a5.00588,5.00588,0,0,1,5,5H12A5.00588,5.00588,0,0,1,17,29Zm-3-5a3,3,0,1,1,3,3A3.00328,3.00328,0,0,1,14,24Zm30,8v2H33V32ZM33,30V28a1.001,1.001,0,0,1,1-1h9a1.001,1.001,0,0,1,1,1v2Zm16,4H46V28a3.00328,3.00328,0,0,0-3-3H34a3.00328,3.00328,0,0,0-3,3v6H24a7.00311,7.00311,0,0,0-3.77875-6.20819,5.0001,5.0001,0,1,0-6.4425,0A7.00311,7.00311,0,0,0,10,34H3V15.97443a4.93284,4.93284,0,0,0,7-1.00537,4.95453,4.95453,0,0,0,8,0,4.95453,4.95453,0,0,0,8,0,4.95453,4.95453,0,0,0,8,0,4.95453,4.95453,0,0,0,8,0,4.93284,4.93284,0,0,0,7,1.00537Z" style="fill:#151a6a"/></svg>
