<svg id="Line" height="512" viewBox="0 0 64 64" width="512" xmlns="http://www.w3.org/2000/svg"><g fill="#c4a2fc"><path d="m59 25h-32a3.00328 3.00328 0 0 0 -3 3v32a3.00328 3.00328 0 0 0 3 3h32a3.00328 3.00328 0 0 0 3-3v-32a3.00328 3.00328 0 0 0 -3-3zm-1 30a3.00328 3.00328 0 0 1 -3 3h-24a3.00328 3.00328 0 0 1 -3-3v-17a3.00328 3.00328 0 0 1 3-3h2.55646a3.95376 3.95376 0 0 1 -.55646-2 4.00458 4.00458 0 0 1 4-4 6.99609 6.99609 0 0 1 6 3.413 6.99609 6.99609 0 0 1 6-3.413 4.00458 4.00458 0 0 1 4 4 3.95376 3.95376 0 0 1 -.55646 2h2.55646a3.00328 3.00328 0 0 1 3 3z"/><path d="m42 41v-4h-11a1.0013 1.0013 0 0 0 -1 1v3z"/><path d="m51 33a2.002 2.002 0 0 0 -2-2 5.00854 5.00854 0 0 0 -4.89941 4h4.89941a2.002 2.002 0 0 0 2-2z"/><path d="m37 31a2 2 0 0 0 0 4h4.89941a5.00854 5.00854 0 0 0 -4.89941-4z"/><path d="m44 37v4h12v-3a1.0013 1.0013 0 0 0 -1-1z"/><path d="m44 43v13h11a1.0013 1.0013 0 0 0 1-1v-12z"/><path d="m42 43h-12v12a1.0013 1.0013 0 0 0 1 1h11z"/></g><path d="m7 35h7v13a3.00328 3.00328 0 0 0 3 3h28a3.00328 3.00328 0 0 0 3-3v-44a3.00328 3.00328 0 0 0 -3-3h-28a3.00328 3.00328 0 0 0 -3 3v4.35a5.98344 5.98344 0 0 0 -8 5.65v2h-3a1 1 0 0 0 -1 1v13a5.00588 5.00588 0 0 0 5 5zm10 0h29v10h-30v-10zm4-19h-3v-2a5.95585 5.95585 0 0 0 -.81177-3h28.81177v22h-25.02557a4.95129 4.95129 0 0 0 1.02557-3v-13a1 1 0 0 0 -1-1zm25-7h-30v-2h30zm-1 40h-28a1.0013 1.0013 0 0 1 -1-1v-1h30v1a1.0013 1.0013 0 0 1 -1 1zm-28-46h28a1.0013 1.0013 0 0 1 1 1v1h-30v-1a1.0013 1.0013 0 0 1 1-1zm-9 11a4 4 0 0 1 8 0v2h-8zm-4 4h2v1a1 1 0 0 0 2 0v-1h8v1a1 1 0 0 0 2 0v-1h2v12a3.00328 3.00328 0 0 1 -3 3h-10a3.00328 3.00328 0 0 1 -3-3z" fill="#151a6a"/><path d="m36 43h5a3 3 0 0 0 0-6h-5a3 3 0 0 0 0 6zm0-4h5a1 1 0 0 1 0 2h-5a1 1 0 0 1 0-2z" fill="#151a6a"/><path d="m21 43h5a3 3 0 0 0 0-6h-5a3 3 0 0 0 0 6zm0-4h5a1 1 0 0 1 0 2h-5a1 1 0 0 1 0-2z" fill="#151a6a"/><path d="m31 29h8a3.00328 3.00328 0 0 0 3-3v-8a3.00328 3.00328 0 0 0 -3-3h-8a3.00328 3.00328 0 0 0 -3 3v8a3.00328 3.00328 0 0 0 3 3zm-1-11a1.0013 1.0013 0 0 1 1-1h8a1.0013 1.0013 0 0 1 1 1v8a1.0013 1.0013 0 0 1 -1 1h-8a1.0013 1.0013 0 0 1 -1-1z" fill="#151a6a"/></svg>